<svg xmlns="http://www.w3.org/2000/svg" viewBox="0 0 48 48"><defs><style>.cls-1{fill:#4891d3;}.cls-2{fill:#2d71ba;}.cls-3{fill:#192835;}.cls-4{fill:#f9e109;}</style></defs><title>telephone</title><g id="telephone"><path class="cls-1" d="M9,9V39a2,2,0,0,1-2-2V11A2,2,0,0,1,9,9Z"/><path class="cls-1" d="M41,11V37a2,2,0,0,1-2,2H23V9H39A2,2,0,0,1,41,11Z"/><rect class="cls-2" x="11" y="7" width="10" height="34" rx="1" ry="1"/><path class="cls-3" d="M10,7H9a4,4,0,0,0-4,4V37a4,4,0,0,0,4,4h1a1,1,0,0,0,1-1V8A1,1,0,0,0,10,7ZM7,37V11A2,2,0,0,1,9,9V39A2,2,0,0,1,7,37Z"/><path class="cls-3" d="M39,7H22a1,1,0,0,0-1,1V40a1,1,0,0,0,1,1H39a4,4,0,0,0,4-4V11A4,4,0,0,0,39,7Zm2,30a2,2,0,0,1-2,2H23V9H39a2,2,0,0,1,2,2Z"/><path class="cls-3" d="M38,11H26a1,1,0,0,0-1,1v5a1,1,0,0,0,1,1H38a1,1,0,0,0,1-1V12A1,1,0,0,0,38,11Zm-1,5H27V13H37Z"/><rect class="cls-4" x="27" y="13" width="10" height="3"/><path class="cls-3" d="M28,22H26a1,1,0,0,1,0-2h2a1,1,0,0,1,0,2Z"/><path class="cls-3" d="M33,22H31a1,1,0,0,1,0-2h2a1,1,0,0,1,0,2Z"/><path class="cls-3" d="M38,22H36a1,1,0,0,1,0-2h2a1,1,0,0,1,0,2Z"/><path class="cls-3" d="M28,25H26a1,1,0,0,1,0-2h2a1,1,0,0,1,0,2Z"/><path class="cls-3" d="M33,25H31a1,1,0,0,1,0-2h2a1,1,0,0,1,0,2Z"/><path class="cls-3" d="M38,25H36a1,1,0,0,1,0-2h2a1,1,0,0,1,0,2Z"/><path class="cls-3" d="M28,28H26a1,1,0,0,1,0-2h2a1,1,0,0,1,0,2Z"/><path class="cls-3" d="M33,28H31a1,1,0,0,1,0-2h2a1,1,0,0,1,0,2Z"/><path class="cls-3" d="M33,31H31a1,1,0,0,1,0-2h2a1,1,0,0,1,0,2Z"/><path class="cls-3" d="M38,28H36a1,1,0,0,1,0-2h2a1,1,0,0,1,0,2Z"/><path class="cls-2" d="M38,37H22a1,1,0,0,1,0-2H38a1,1,0,0,1,0,2Z"/><path class="cls-3" d="M22.82,7A3,3,0,0,0,20,5H12A3,3,0,0,0,9.18,7,2.77,2.77,0,0,0,9,8V40a2.77,2.77,0,0,0,.18,1A3,3,0,0,0,12,43h8a3,3,0,0,0,2.82-2A2.77,2.77,0,0,0,23,40V8A2.77,2.77,0,0,0,22.82,7ZM20,41H12a1,1,0,0,1-1-1V8a1,1,0,0,1,1-1h8a1,1,0,0,1,1,1V40A1,1,0,0,1,20,41Z"/></g></svg>